<?xml version="1.0" encoding="utf-8"?>
<!-- Generator: Adobe Illustrator 27.0.0, SVG Export Plug-In . SVG Version: 6.00 Build 0)  -->
<svg version="1.1" xmlns="http://www.w3.org/2000/svg" xmlns:xlink="http://www.w3.org/1999/xlink" x="0px" y="0px"
	 viewBox="0 0 340.16 340.16" style="enable-background:new 0 0 340.16 340.16;" xml:space="preserve">
<style type="text/css">
	.st0{fill:#EF4C20;}
	.st1{fill:url(#SVGID_1_);}
	.st2{fill:#EA5E11;}
	.st3{stroke:#FFFFFF;stroke-miterlimit:10;}
	.st4{fill:none;stroke:#1D1D1B;stroke-width:2.2258;stroke-miterlimit:10;}
	.st5{fill:#1D1D1B;}
	.st6{fill:none;stroke:#1D1D1B;stroke-width:2;stroke-miterlimit:10;}
	.st7{fill:none;stroke:#FFFFFF;stroke-width:4.6441;stroke-miterlimit:10;}
	.st8{fill:#FFFFFF;}
	.st9{fill:none;stroke:#FFFFFF;stroke-width:23.17;stroke-miterlimit:10;}
	.st10{fill:#D05033;}
	.st11{fill:#E45942;}
	.st12{fill:#113A2A;}
	.st13{fill:#FFFFFF;stroke:#000000;stroke-miterlimit:10;}
	.st14{fill:#EF4C20;stroke:#EF4C20;stroke-width:0.5319;stroke-miterlimit:10;}
	.st15{fill:#EF4C20;stroke:#EF4C20;stroke-width:1.0638;stroke-miterlimit:10;}
	.st16{fill:#EF4C20;stroke:#EF4C20;stroke-width:1.3297;stroke-miterlimit:10;}
	.st17{fill:#DF7837;}
	.st18{fill:none;stroke:#E45942;stroke-miterlimit:10;}
	.st19{clip-path:url(#SVGID_00000157994895767623161900000008924360459710157225_);}
	.st20{fill:#F7E8D3;}
	.st21{fill:#87A48E;}
	.st22{fill:#EFA744;}
	.st23{fill:#153B2B;}
	.st24{fill:#A4C8D8;}
	.st25{fill:#ED1B24;}
	.st26{fill:#F9F2ED;}
	.st27{fill:none;stroke:#113A2A;stroke-width:3;stroke-linecap:round;stroke-miterlimit:10;}
	.st28{fill:#FFF7F0;}
	.st29{fill:#254A90;}
	.st30{fill:#EC5E10;}
	.st31{fill:#EB5D11;}
	.st32{fill:#ED5E0E;}
	.st33{fill:none;stroke:#F7E8D3;stroke-miterlimit:10;}
	.st34{fill:none;stroke:#000000;stroke-width:4.6441;stroke-miterlimit:10;}
	.st35{fill:none;stroke:#EF4C20;stroke-width:4.6441;stroke-miterlimit:10;}
	.st36{fill:none;stroke:#F9F2ED;stroke-width:2.5;stroke-miterlimit:10;}
	.st37{fill:none;stroke:#FFFFFF;stroke-width:2.5;stroke-miterlimit:10;}
	.st38{fill:none;stroke:#FFFFFF;stroke-width:0.9375;stroke-miterlimit:10;}
	.st39{fill:#FFFFFF;stroke:#ED1B24;stroke-width:1.4553;stroke-miterlimit:10;}
	.st40{fill:none;stroke:#ED1B24;stroke-width:1.4553;stroke-miterlimit:10;}
	.st41{fill:none;stroke:#FFFFFF;stroke-width:0.995;stroke-miterlimit:10;}
	.st42{fill:#FFFFFF;stroke:#ED1B24;stroke-width:1.4356;stroke-miterlimit:10;}
	.st43{fill:none;stroke:#ED1B24;stroke-width:1.4356;stroke-miterlimit:10;}
	.st44{fill:none;stroke:#FFFFFF;stroke-width:0.7522;stroke-miterlimit:10;}
	.st45{fill:#FFFFFF;stroke:#ED1B24;stroke-width:1.1676;stroke-miterlimit:10;}
	.st46{fill:none;stroke:#ED1B24;stroke-width:1.1676;stroke-miterlimit:10;}
	.st47{fill:#FFFFFF;stroke:#ED1B24;stroke-width:1.1518;stroke-miterlimit:10;}
	.st48{fill:none;stroke:#ED1B24;stroke-width:1.1518;stroke-miterlimit:10;}
	.st49{fill:none;stroke:#000000;stroke-width:0.9802;stroke-miterlimit:10;}
	.st50{stroke:#000000;stroke-width:1.5;stroke-miterlimit:10;}
	.st51{fill:none;stroke:#000000;stroke-miterlimit:10;}
	.st52{fill:#FF803D;}
	.st53{fill:#FF953D;}
</style>
<g id="Calque_2">
</g>
<g id="Calque_1">
	<g>
		<g>
			<path class="st52" d="M319.97,240.83c-0.53-1.21-1.31-2.27-2.08-3.32c-6.02-8.19-11.76-16.6-17.97-24.63
				c-2.56-3.31-4.84-6.79-7.48-10.05c-2.76-3.41-5.59-6.75-8.35-10.17c-1.38-1.71-2.62-3.54-3.79-5.42
				c-3.14-5.06-6.47-9.99-9.96-14.78c-1.13-1.54-2.27-3.07-3.43-4.58c-0.54-0.7-1.13-1.37-1.63-2.1c-0.52-0.76-1.06-1.5-1.6-2.24
				c-0.74-1.01-2.64-3.47-2.64-3.47s-0.78,1.15-0.96,1.4c-0.72,0.98-1.44,1.96-2.16,2.93c-0.61,0.83-1.2,1.67-1.83,2.49
				c-0.59,0.77-1.08,1.66-1.61,2.49c-1.1,1.73-2.22,3.45-3.35,5.17c-1.21,1.83-1.65,1.71-2.91-0.04c-0.98-1.36-1.88-2.8-2.69-4.28
				c-1.39-2.55-3.2-4.82-4.96-7.09c-4.41-5.66-8.72-11.41-13-17.18c-5-6.74-9.95-13.51-14.88-20.31c-2.49-3.45-4.98-6.9-7.45-10.36
				c-0.02-0.02-0.03-0.04-0.05-0.07c-0.8-1.12-5.3-6.92-5.66-7.32c-0.09-0.1-1.05-1.41-1.05-1.41c-0.62,0.87-1.16,1.81-1.74,2.71
				c-0.17,0.26-0.34,0.52-0.5,0.79c-0.33,0.54-0.62,1.11-0.92,1.67c-1.1,2.01-1.77,3.13-3.11,4.98c-0.7,0.98-1.81,2.86-2.51,3.84
				c-0.68,0.96-1.26,1.99-1.84,3.02c-2.38,4.24-4.76,8.48-7.14,12.72c-0.54,0.96-1.62,4.16-2.67,4.57
				c-0.94,0.36-3.09-4.54-3.67-5.58c-1.26-2.27-2.53-4.54-4.11-6.57c-1.09-1.39-10.51-15.76-14.84-20.83
				c-1.11-1.3-12.35-15.17-13.83-16.49c-0.77,1.43-1.63,2.84-2.57,4.16c-2,2.94-3.47,4.69-5.15,7.85c-0.73,1.36-2.16,3.57-3.15,4.88
				c-0.79,1.04-1.43,2.19-2.02,3.38c-3.48,7.1-8.52,13.14-12.76,19.74c-1.82,2.84-3.5,5.78-5.17,8.72
				c-3.49,6.12-7.12,12.19-10.54,18.34c-2.65-3.9-5.42-7.72-8.31-11.43c-1.12-1.45-8.06-8.75-8.06-8.75s-3.42,4.99-4.76,6.78
				c-1.51,2-2.92,4.09-4.14,6.31c-1.64,2.98-11.56,19.42-14.93,24.67c-3.52,5.49-6.25,11.51-9.65,17.08
				c-3.35,5.49-7.33,10.53-10.71,16c-4.1,6.66-7.27,13.9-10.84,20.89c-1.8,3.53-3.71,7-5.87,10.28c-0.88,1.33-1.32,2.46-1.87,3.93
				c-0.54,1.45-1.95,3.01-1.73,4.69c4.74,0.16,9.61-1.21,13.72-3.56c2.07-1.18,4.16-2.33,6.24-3.48c3.08-1.12,6.15-2.26,9.06-3.93
				c3.06-1.68,6.82-4.72,10.29-4.68c3.13,4.03,5.81,8.54,9.63,11.98c1.79,1.61,2.85,3.61,5.46,3.68c2,0.05,4.1-1.29,5.7-2.45
				c4.07-2.95,7.66-6.58,11.26-10.14c0.95-0.94,1.77-2,2.73-2.93c0.45-0.44,1-1.05,1.6-1.29c0.9-0.37,1.68,0.34,2.26,0.98
				c1.04,1.15,2.09,2.3,3.13,3.44c0.26,0.28,0.63,0.59,0.97,0.42c0.13-0.06,0.22-0.19,0.31-0.31c0.67-0.94,1.35-1.87,2.02-2.81
				c1.07-1.48,2.14-2.97,3.19-4.46c3.26-4.64,6.16-9.52,9.39-14.18c0.19-0.27,0.46-0.58,0.78-0.51c0.17,0.03,0.3,0.17,0.42,0.3
				c1.28,1.42,1.95,3.19,2.96,4.77c1.68,2.62,3.56,5.09,5.17,7.75c1.68,2.76,3.32,5.54,4.92,8.35c0.29,0.51,0.6,1.04,1.06,1.41
				c1.41,1.12,2.39-0.75,3.23-1.72c1.07-1.24,2.07-2.53,3-3.86c0.45-0.64,0.88-1.29,1.31-1.94c2.51-3.74,5-7.64,7.91-11.08
				c0.28-0.33,0.64-0.69,1.04-0.6c0.21,0.04,0.39,0.21,0.55,0.36c1.2,1.18,1.93,2.88,3.32,3.88c2.04,1.46,2.85-0.56,3.81-2.1
				c1.46-2.34,3-4.64,4.61-6.88c0.73-1.02,1.57-2.01,2.2-3.09c0.45-0.78,1.05-2.36,2.2-2.22c0.44,0.05,0.78,0.41,1.07,0.75
				c5.18,5.94,9.92,12.25,14.18,18.87c1.14,1.77,2.26,3.58,3.72,5.1c0.15,0.15,0.31,0.31,0.52,0.34c0.54,0.08,1.17-0.65,1.36-1.07
				c0.38-0.8,0.76-1.6,1.14-2.4c0.1-0.21,0.28-0.45,0.5-0.38c0.12,0.04,0.18,0.16,0.24,0.27c0.66,1.27,1.3,2.1,2.22,3.14
				c1.05,1.19,1.67,2.74,2.8,3.86c0.92,1.33,1.82,2.68,2.68,4.05c0.38,0.6,0.65,1.25,1.08,1.81c0.53,0.68,1.08,1.35,1.62,2.03
				c0.1,0.12,0.2,0.25,0.34,0.32c0.28,0.15,0.63,0.02,0.89-0.16c0.44-0.3,0.75-0.75,1.06-1.19c1.13-1.62,1.93-3.32,2.99-4.99
				c1.1-1.73,2.3-3.4,3.57-5.02c2.49-3.19,5.21-6.2,7.92-9.21c0.29-0.32,0.57-0.64,0.86-0.96c3.08-3.45,5.84-7.18,8.87-10.74
				c0.2-0.24,0.48-0.49,0.76-0.38c0.13,0.05,0.23,0.18,0.32,0.3c3.68,5.05,7.05,10.36,10.11,15.87c1.04,1.88,2.77,9.24,5.57,8.5
				c0.95-0.25,1.77-1.14,2.45-1.79c3.03-2.93,5.58-6.25,8.8-9.01c0.37-0.32,0.8-0.65,1.28-0.61c0.28,0.02,0.53,0.16,0.76,0.32
				c1.15,0.81,1.78,2.24,2.67,3.29c1.11,1.3,2.22,2.6,3.37,3.86c1.74,1.91,3.56,3.76,5.54,5.42c0.9,0.76,1.81,1.53,2.77,2.2
				c0.69,0.48,1.67,1.29,2.57,1.25c1.21-0.05,1.74-1.37,2.49-2.27c4.62-5.51,8.53-11.68,13.44-16.91c0.6-0.64,1.21-1.26,1.84-1.87
				c0.84-0.81,0.96-1.02,1.94-0.38c1.26,0.82,2.39,1.91,3.41,3.04c2.11,2.34,3.82,5.05,5.75,7.56c1.54,2,3.19,3.23,5.05,4.82
				c1.89,1.62,3.58,3.49,5.41,5.19c0.71,0.66,1.48,1.31,2.29,1.91c1.82,1.34,4.02,2.59,6.26,2.78
				C321.72,245.65,320.62,242.3,319.97,240.83z M78.09,157.63c0.91-1.71,2.02-3.28,3.11-4.84c0.99-1.42,2-2.85,3.24-3.98
				c0.18-0.16,0.41-0.32,0.61-0.21c0.13,0.08,1.04,1.21,1.26,1.5c0.22,0.27,0.43,0.55,0.64,0.83c1.24,1.64,2.37,3.39,3.39,5.22
				c0.32,0.58,0.64,1.17,0.95,1.76c0.19,0.37,0.39,0.73,0.53,1.13c0.1,0.28,0.17,0.56,0.21,0.86c0.03,0.24,0.08,0.53-0.1,0.72
				c-0.13,0.14-0.33,0.12-0.5,0.08c-0.41-0.1-0.78-0.3-1.13-0.54c-0.55-0.38-1.05-0.86-1.53-1.33c-0.31-0.31-0.61-0.63-0.91-0.96
				c-0.19-0.21-0.43-0.4-0.6-0.63c-0.38-0.51-0.78-0.99-1.19-1.47c-0.02-0.02-0.04-0.05-0.07-0.04c-0.02,0-0.04,0.02-0.06,0.04
				c-0.07,0.11-0.08,0.26-0.09,0.4c-0.04,1.09-0.08,2.13-0.31,3.2c-0.11,0.52-0.24,1.03-0.38,1.54c-0.09,0.35-0.16,0.72-0.3,1.05
				c-0.04,0.09-0.09,0.18-0.14,0.26c-0.03,0.04-0.06,0.08-0.1,0.09c-0.1,0.04-0.18-0.08-0.22-0.17c-0.7-1.47-1.23-3.05-1.58-4.68
				c-0.02-0.11-0.32-1.65-0.34-1.62c-0.32,0.4-0.64,0.81-0.97,1.21c-0.49,0.62-0.98,1.24-1.53,1.8c-0.54,0.54-1.11,1.04-1.67,1.56
				c-0.31,0.29-0.73,0.77-1.17,0.76C76.3,161.12,77.93,157.93,78.09,157.63z M92.2,205.36c-0.51-0.56-3.39-5.47-3.17-6.02
				c-0.86,2.14-9.65,16.56-11.17,19c-1.86,3.2-2.83,0.17-3.72-2.54c-2.07,3.37-5.19,10.1-8.22,12.5c0.42-6.14,1.38-12.23,2.85-18.18
				c0.52,1.96,1.29,3.85,2.3,5.58c7.57-9.14,14.81-16.2,19.7-23.66C92.29,194.54,96.91,197.61,92.2,205.36z M130.71,131.47
				c-0.85,0.64-1.58,1.73-2.69,1.22c-0.08-0.03-0.16-0.08-0.19-0.18c-0.27-0.86,0.83-2.59,1.17-3.27c1.49-2.96,2.86-5.98,4.43-8.87
				c1.68-3.09,3.34-6.19,5-9.29c1.34-2.5,2.62-5.18,4.16-7.52c-0.19,0.29,3.84,5.1,4.19,5.56c2.39,3.18,4.47,6.62,6.52,10.12
				c2.1,3.57,3.83,7.45,5.15,11.52c0.06,0.19,0.1,0.48-0.06,0.55c-0.07,0.03-0.14,0.01-0.21-0.01c-2.35-0.78-4.75-1.58-6.9-3.01
				c-0.93-0.62-1.74-1.49-2.42-2.47c-0.36-0.52-0.69-1.07-0.98-1.65c-0.2-0.4-0.4-1.26-0.79-1.4c-0.33,1.1-0.17,2.77-0.28,3.98
				c-0.26,3-0.74,5.62-2.13,8.17c-0.07,0.13-0.15,0.26-0.27,0.31c-0.21,0.08-0.41-0.14-0.55-0.34c-1.25-1.79-2.06-3.96-2.63-6.18
				c-0.24-0.95-0.44-1.92-0.62-2.9c-0.03-0.15-0.06-0.3-0.08-0.46c-0.04-0.25-0.37-1.51-0.5-2.31c-0.04-0.24-0.28-0.31-0.42-0.13
				c-1.71,2.28-3.67,4.26-5.75,6.03C132.84,129.83,131.78,130.66,130.71,131.47z M159.36,194.43c-0.2,0.89-0.39,1.79-0.59,2.68
				c-4.91-5.84-10.19-11.32-15.8-16.4c-1.15,0.86-1.97,2.2-2.24,3.66c-2.98-8.23-5.45-16.67-7.38-25.25
				c8.55,16.12,24.36,25.66,32.65,41.74C163.78,198.72,161.57,196.58,159.36,194.43z M199.72,190.26c-0.39,1.06-1.43,1.83-2.54,1.89
				c-0.98-4.22-1.64-9.07-3.92-12.69c-5.37-0.59-9.05-10.59-9.26-15.84c11.44,9.41,19,21.76,23.07,36.78
				C204.77,200.11,198.78,192.82,199.72,190.26z M208.73,135.94c-0.14,0.03-0.28-0.02-0.41-0.08c-0.73-0.36-1.26-1.07-1.77-1.76
				c-0.52-0.7-1.03-1.39-1.55-2.09c-0.4-0.54-0.75-1.09-1.11-1.66c-0.1-0.16-1.18-1.66-1.15-1.71c-0.22,0.31-0.63,3.8-0.82,4.6
				c-0.16,0.68-0.34,1.35-0.54,2.01c-0.12,0.39-0.24,1.08-0.78,0.7c-0.23-0.16-0.34-0.47-0.44-0.76c-0.82-2.58-1.16-5.28-1.92-7.88
				c-0.05-0.16-0.09-0.31-0.14-0.47c-0.01-0.04-0.04-0.1-0.08-0.1c-0.03,0-0.05,0.02-0.07,0.04c-1.11,1.1-2.05,2.38-3,3.64
				c-0.88,1.16-1.7,2.31-2.75,3.29c-0.08,0.08-0.17,0.16-0.27,0.2c-0.44,0.19-0.68-0.71-0.69-1.05c-0.01-0.39,0.08-0.77,0.18-1.14
				c0.48-1.81,1.09-3.57,1.81-5.28c0.36-0.85,0.75-1.69,1.17-2.51c0.39-0.76,0.62-1.59,0.99-2.36c0.7-1.43,1.4-2.87,2.1-4.3
				c0.31-0.64,0.62-1.3,1.04-1.85c0.3-0.4,0.32-0.35,0.62,0.03c0.25,0.32,0.49,0.65,0.74,0.99c0.93,1.27,4.26,6.9,4.92,8.39
				c0.83,1.89,1.69,3.76,2.56,5.63c0.39,0.83,0.7,1.72,1.02,2.58C208.55,133.49,209.56,135.73,208.73,135.94z M269.43,185.58
				c-1.94-1.89-3.67-4.03-5.45-6.15c-0.39-0.46-0.47-0.6-0.85-0.06c-0.22,0.31-0.37,0.66-0.49,1.03c-0.24,0.74-0.31,1.53-0.43,2.3
				c-0.12,0.75-0.29,1.48-0.61,2.12c-0.45-0.78-0.94-1.6-1.21-2.48c-0.08-0.25-0.73-2.61-0.59-2.7c-0.59,0.39-1.07,1.04-1.62,1.52
				c-0.67,0.58-1.33,1.24-2.05,1.73c-0.78,0.52-1.66,0.91-2.49,1.29c0.19-0.45,0.41-0.9,0.54-1.38c0.69-2.53,2-4.8,3.29-6.97
				c1.34-2.26,2.86-4.45,4.48-6.46c1.21,1.97,2.15,4.12,3.35,6.09c0.89,1.46,1.76,2.94,2.62,4.44c0.84,1.47,1.63,2.7,1.91,4.47
				C269.87,184.76,270.19,186.32,269.43,185.58z"/>
		</g>
	</g>
</g>
</svg>
