<?xml version="1.0" encoding="UTF-8"?>
<svg xmlns="http://www.w3.org/2000/svg" xmlns:xlink="http://www.w3.org/1999/xlink" width="144px" height="144px" viewBox="0 0 144 144" version="1.1">
<g id="surface1">
<path style=" stroke:none;fill-rule:nonzero;fill:rgb(100%,58.431373%,23.921569%);fill-opacity:1;" d="M 135.453125 101.949219 C 135.230469 101.4375 134.898438 100.988281 134.574219 100.546875 C 132.023438 97.078125 129.59375 93.519531 126.964844 90.117188 C 125.882812 88.71875 124.917969 87.242188 123.796875 85.863281 C 122.628906 84.421875 121.433594 83.007812 120.265625 81.558594 C 119.679688 80.835938 119.15625 80.058594 118.660156 79.265625 C 117.332031 77.121094 115.921875 75.035156 114.441406 73.007812 C 113.964844 72.355469 113.480469 71.707031 112.992188 71.070312 C 112.761719 70.773438 112.511719 70.488281 112.300781 70.179688 C 112.082031 69.859375 111.851562 69.542969 111.625 69.230469 C 111.308594 68.804688 110.507812 67.761719 110.507812 67.761719 C 110.507812 67.761719 110.175781 68.25 110.101562 68.355469 L 109.183594 69.59375 C 108.925781 69.945312 108.675781 70.300781 108.410156 70.648438 C 108.160156 70.976562 107.953125 71.351562 107.730469 71.703125 C 107.261719 72.4375 106.789062 73.164062 106.3125 73.890625 C 105.796875 74.667969 105.613281 74.617188 105.078125 73.875 C 104.664062 73.300781 104.28125 72.691406 103.941406 72.0625 C 103.351562 70.984375 102.585938 70.023438 101.839844 69.0625 C 99.972656 66.667969 98.148438 64.230469 96.335938 61.789062 C 94.21875 58.9375 92.125 56.070312 90.039062 53.191406 C 88.984375 51.730469 87.929688 50.269531 86.882812 48.804688 C 86.875 48.796875 86.871094 48.789062 86.863281 48.777344 C 86.523438 48.300781 84.621094 45.847656 84.46875 45.675781 C 84.429688 45.636719 84.023438 45.082031 84.023438 45.082031 C 83.761719 45.449219 83.53125 45.847656 83.285156 46.226562 C 83.214844 46.335938 83.140625 46.449219 83.074219 46.5625 C 82.933594 46.789062 82.8125 47.03125 82.683594 47.269531 C 82.21875 48.121094 81.9375 48.59375 81.367188 49.378906 C 81.070312 49.792969 80.601562 50.589844 80.304688 51.003906 C 80.019531 51.410156 79.773438 51.84375 79.527344 52.28125 C 78.519531 54.078125 77.511719 55.871094 76.503906 57.667969 C 76.277344 58.074219 75.820312 59.425781 75.375 59.601562 C 74.976562 59.753906 74.066406 57.679688 73.820312 57.238281 C 73.285156 56.277344 72.75 55.316406 72.082031 54.457031 C 71.617188 53.867188 67.632812 47.785156 65.796875 45.640625 C 65.328125 45.089844 60.570312 39.21875 59.945312 38.660156 C 59.617188 39.265625 59.253906 39.859375 58.855469 40.417969 C 58.007812 41.664062 57.386719 42.40625 56.675781 43.742188 C 56.367188 44.320312 55.761719 45.253906 55.34375 45.808594 C 55.007812 46.25 54.738281 46.734375 54.488281 47.238281 C 53.011719 50.246094 50.878906 52.800781 49.085938 55.597656 C 48.316406 56.796875 47.601562 58.042969 46.898438 59.289062 C 45.417969 61.878906 43.882812 64.449219 42.433594 67.050781 C 41.3125 65.398438 40.140625 63.78125 38.917969 62.210938 C 38.441406 61.597656 35.503906 58.507812 35.503906 58.507812 C 35.503906 58.507812 34.058594 60.621094 33.488281 61.378906 C 32.851562 62.226562 32.253906 63.109375 31.738281 64.050781 C 31.042969 65.3125 26.84375 72.269531 25.417969 74.492188 C 23.925781 76.816406 22.769531 79.367188 21.332031 81.722656 C 19.914062 84.046875 18.230469 86.179688 16.796875 88.496094 C 15.0625 91.316406 13.71875 94.382812 12.207031 97.339844 C 11.445312 98.835938 10.636719 100.304688 9.722656 101.691406 C 9.351562 102.253906 9.164062 102.734375 8.933594 103.355469 C 8.703125 103.96875 8.105469 104.628906 8.199219 105.339844 C 10.207031 105.410156 12.269531 104.828125 14.007812 103.835938 C 14.882812 103.335938 15.769531 102.847656 16.648438 102.359375 C 17.953125 101.886719 19.253906 101.40625 20.484375 100.699219 C 21.78125 99.988281 23.371094 98.699219 24.839844 98.714844 C 26.167969 100.421875 27.300781 102.332031 28.917969 103.789062 C 29.675781 104.46875 30.125 105.316406 31.230469 105.347656 C 32.074219 105.367188 32.964844 104.800781 33.640625 104.308594 C 35.363281 103.058594 36.882812 101.523438 38.410156 100.015625 C 38.8125 99.617188 39.15625 99.167969 39.5625 98.777344 C 39.753906 98.589844 39.988281 98.332031 40.242188 98.230469 C 40.621094 98.074219 40.953125 98.375 41.199219 98.644531 C 41.640625 99.132812 42.082031 99.617188 42.523438 100.101562 C 42.632812 100.21875 42.789062 100.351562 42.933594 100.277344 C 42.988281 100.253906 43.027344 100.199219 43.066406 100.148438 C 43.347656 99.75 43.636719 99.355469 43.921875 98.957031 C 44.375 98.332031 44.828125 97.699219 45.269531 97.070312 C 46.652344 95.105469 47.878906 93.039062 49.246094 91.066406 C 49.328125 90.953125 49.441406 90.820312 49.578125 90.851562 C 49.648438 90.863281 49.703125 90.921875 49.753906 90.976562 C 50.296875 91.578125 50.578125 92.328125 51.007812 92.996094 C 51.71875 94.105469 52.515625 95.152344 53.195312 96.277344 C 53.90625 97.445312 54.601562 98.625 55.277344 99.8125 C 55.402344 100.027344 55.53125 100.253906 55.726562 100.410156 C 56.324219 100.882812 56.738281 100.09375 57.09375 99.679688 C 57.546875 99.15625 57.972656 98.609375 58.363281 98.046875 C 58.554688 97.777344 58.738281 97.5 58.917969 97.226562 C 59.980469 95.644531 61.035156 93.992188 62.269531 92.535156 C 62.386719 92.394531 62.539062 92.242188 62.707031 92.28125 C 62.796875 92.296875 62.871094 92.371094 62.941406 92.433594 C 63.449219 92.933594 63.757812 93.652344 64.347656 94.078125 C 65.210938 94.695312 65.550781 93.839844 65.960938 93.1875 C 66.578125 92.195312 67.230469 91.222656 67.910156 90.273438 C 68.21875 89.84375 68.574219 89.425781 68.84375 88.96875 C 69.03125 88.636719 69.285156 87.96875 69.773438 88.027344 C 69.960938 88.046875 70.101562 88.199219 70.226562 88.34375 C 72.417969 90.859375 74.425781 93.53125 76.230469 96.332031 C 76.710938 97.082031 77.1875 97.847656 77.804688 98.492188 C 77.867188 98.554688 77.933594 98.625 78.023438 98.636719 C 78.253906 98.667969 78.519531 98.359375 78.601562 98.183594 C 78.761719 97.84375 78.921875 97.503906 79.082031 97.167969 C 79.125 97.078125 79.199219 96.976562 79.292969 97.007812 C 79.34375 97.023438 79.371094 97.074219 79.394531 97.121094 C 79.675781 97.65625 79.945312 98.007812 80.335938 98.449219 C 80.78125 98.953125 81.042969 99.609375 81.519531 100.082031 C 81.910156 100.648438 82.292969 101.21875 82.65625 101.796875 C 82.816406 102.050781 82.929688 102.328125 83.113281 102.5625 C 83.335938 102.851562 83.570312 103.136719 83.796875 103.421875 C 83.839844 103.472656 83.882812 103.53125 83.941406 103.558594 C 84.0625 103.621094 84.207031 103.566406 84.320312 103.492188 C 84.503906 103.363281 84.636719 103.175781 84.769531 102.988281 C 85.246094 102.300781 85.585938 101.582031 86.035156 100.875 C 86.5 100.144531 87.007812 99.4375 87.542969 98.75 C 88.597656 97.398438 89.75 96.125 90.898438 94.851562 C 91.019531 94.714844 91.140625 94.582031 91.261719 94.445312 C 92.566406 92.984375 93.734375 91.40625 95.015625 89.898438 C 95.101562 89.796875 95.21875 89.691406 95.339844 89.738281 C 95.394531 89.757812 95.4375 89.8125 95.472656 89.863281 C 97.03125 92.003906 98.457031 94.25 99.753906 96.582031 C 100.195312 97.378906 100.925781 100.496094 102.113281 100.179688 C 102.511719 100.074219 102.859375 99.699219 103.148438 99.421875 C 104.429688 98.183594 105.511719 96.777344 106.875 95.609375 C 107.03125 95.472656 107.210938 95.332031 107.414062 95.351562 C 107.535156 95.359375 107.640625 95.417969 107.738281 95.488281 C 108.222656 95.828125 108.492188 96.433594 108.867188 96.878906 C 109.335938 97.429688 109.808594 97.980469 110.292969 98.511719 C 111.03125 99.320312 111.800781 100.105469 112.640625 100.808594 C 113.019531 101.128906 113.40625 101.457031 113.8125 101.738281 C 114.105469 101.941406 114.519531 102.285156 114.898438 102.269531 C 115.414062 102.246094 115.636719 101.6875 115.953125 101.308594 C 117.910156 98.972656 119.566406 96.363281 121.644531 94.148438 C 121.898438 93.878906 122.15625 93.617188 122.421875 93.355469 C 122.777344 93.015625 122.828125 92.925781 123.242188 93.195312 C 123.777344 93.542969 124.257812 94.003906 124.6875 94.484375 C 125.582031 95.472656 126.304688 96.621094 127.121094 97.683594 C 127.773438 98.53125 128.472656 99.050781 129.257812 99.722656 C 130.058594 100.410156 130.773438 101.203125 131.550781 101.921875 C 131.851562 102.199219 132.175781 102.476562 132.519531 102.730469 C 133.289062 103.296875 134.222656 103.824219 135.167969 103.90625 C 136.171875 103.992188 135.707031 102.574219 135.433594 101.949219 Z M 33.058594 66.730469 C 33.441406 66.003906 33.914062 65.339844 34.375 64.679688 C 34.792969 64.078125 35.222656 63.472656 35.746094 62.996094 C 35.820312 62.929688 35.917969 62.859375 36.003906 62.90625 C 36.058594 62.941406 36.445312 63.417969 36.539062 63.542969 C 36.628906 63.65625 36.71875 63.773438 36.808594 63.894531 C 37.332031 64.585938 37.8125 65.328125 38.242188 66.101562 C 38.378906 66.347656 38.515625 66.597656 38.644531 66.847656 C 38.726562 67.003906 38.8125 67.15625 38.871094 67.328125 C 38.914062 67.445312 38.941406 67.5625 38.960938 67.691406 C 38.972656 67.792969 38.992188 67.914062 38.917969 67.996094 C 38.863281 68.054688 38.777344 68.046875 38.707031 68.027344 C 38.53125 67.988281 38.375 67.902344 38.226562 67.800781 C 37.992188 67.640625 37.78125 67.4375 37.578125 67.238281 C 37.449219 67.105469 37.320312 66.972656 37.195312 66.832031 C 37.113281 66.742188 37.011719 66.660156 36.941406 66.5625 C 36.777344 66.347656 36.609375 66.144531 36.4375 65.941406 C 36.425781 65.933594 36.417969 65.921875 36.40625 65.925781 C 36.398438 65.925781 36.390625 65.933594 36.382812 65.941406 C 36.351562 65.988281 36.347656 66.050781 36.34375 66.113281 C 36.324219 66.574219 36.308594 67.011719 36.210938 67.464844 C 36.164062 67.6875 36.109375 67.902344 36.050781 68.117188 C 36.011719 68.265625 35.984375 68.421875 35.921875 68.5625 C 35.90625 68.601562 35.886719 68.640625 35.863281 68.671875 C 35.851562 68.691406 35.839844 68.707031 35.820312 68.710938 C 35.78125 68.726562 35.746094 68.675781 35.730469 68.640625 C 35.433594 68.015625 35.207031 67.347656 35.058594 66.65625 C 35.050781 66.609375 34.925781 65.960938 34.917969 65.972656 C 34.78125 66.140625 34.644531 66.316406 34.503906 66.484375 C 34.296875 66.746094 34.089844 67.007812 33.859375 67.246094 C 33.628906 67.472656 33.386719 67.6875 33.152344 67.90625 C 33.019531 68.027344 32.84375 68.230469 32.65625 68.226562 C 32.296875 68.214844 32.984375 66.871094 33.054688 66.738281 Z M 39.03125 86.933594 C 38.816406 86.699219 37.597656 84.621094 37.6875 84.386719 C 37.324219 85.292969 33.605469 91.398438 32.960938 92.429688 C 32.171875 93.785156 31.761719 92.5 31.386719 91.355469 C 30.507812 92.78125 29.1875 95.628906 27.90625 96.644531 C 28.082031 94.046875 28.488281 91.46875 29.113281 88.949219 C 29.332031 89.78125 29.660156 90.578125 30.085938 91.3125 C 33.289062 87.441406 36.355469 84.453125 38.425781 81.296875 C 39.070312 82.351562 41.023438 83.652344 39.03125 86.933594 Z M 55.335938 55.652344 C 54.976562 55.921875 54.667969 56.382812 54.199219 56.167969 C 54.164062 56.15625 54.132812 56.132812 54.117188 56.089844 C 54.003906 55.726562 54.46875 54.996094 54.613281 54.707031 C 55.246094 53.453125 55.824219 52.175781 56.488281 50.953125 C 57.199219 49.644531 57.902344 48.332031 58.605469 47.019531 C 59.171875 45.960938 59.714844 44.828125 60.367188 43.835938 C 60.285156 43.957031 61.992188 45.996094 62.140625 46.191406 C 63.152344 47.535156 64.03125 48.992188 64.902344 50.472656 C 65.789062 51.984375 66.523438 53.628906 67.082031 55.351562 C 67.105469 55.429688 67.125 55.554688 67.054688 55.582031 C 67.027344 55.597656 66.996094 55.585938 66.964844 55.578125 C 65.972656 55.25 64.957031 54.910156 64.046875 54.304688 C 63.652344 54.042969 63.308594 53.675781 63.019531 53.257812 C 62.867188 53.039062 62.730469 52.804688 62.605469 52.5625 C 62.523438 52.390625 62.4375 52.027344 62.273438 51.96875 C 62.132812 52.433594 62.199219 53.140625 62.152344 53.652344 C 62.042969 54.921875 61.839844 56.03125 61.25 57.113281 C 61.222656 57.167969 61.1875 57.222656 61.136719 57.242188 C 61.046875 57.277344 60.964844 57.183594 60.90625 57.097656 C 60.375 56.339844 60.03125 55.421875 59.792969 54.484375 C 59.691406 54.082031 59.605469 53.667969 59.527344 53.253906 C 59.515625 53.191406 59.503906 53.128906 59.496094 53.058594 C 59.476562 52.953125 59.339844 52.421875 59.28125 52.082031 C 59.265625 51.980469 59.164062 51.949219 59.105469 52.027344 C 58.382812 52.992188 57.550781 53.832031 56.671875 54.578125 C 56.234375 54.953125 55.789062 55.304688 55.335938 55.640625 Z M 67.464844 82.304688 C 67.382812 82.679688 67.300781 83.0625 67.214844 83.4375 C 65.136719 80.964844 62.902344 78.644531 60.527344 76.496094 C 60.039062 76.859375 59.695312 77.425781 59.578125 78.046875 C 58.316406 74.5625 57.273438 70.988281 56.457031 67.355469 C 60.074219 74.179688 66.769531 78.21875 70.277344 85.027344 C 69.339844 84.117188 68.40625 83.210938 67.464844 82.300781 Z M 84.546875 80.539062 C 84.382812 80.988281 83.941406 81.3125 83.472656 81.339844 C 83.058594 79.550781 82.777344 77.5 81.8125 75.964844 C 79.539062 75.71875 77.980469 71.484375 77.894531 69.261719 C 82.734375 73.246094 85.9375 78.472656 87.660156 84.832031 C 86.683594 84.710938 84.148438 81.625 84.546875 80.542969 Z M 88.367188 57.542969 C 88.308594 57.554688 88.246094 57.535156 88.191406 57.507812 C 87.882812 57.355469 87.660156 57.054688 87.441406 56.765625 C 87.222656 56.46875 87.007812 56.175781 86.785156 55.878906 C 86.617188 55.652344 86.46875 55.417969 86.316406 55.175781 C 86.273438 55.109375 85.816406 54.472656 85.832031 54.453125 C 85.738281 54.585938 85.5625 56.0625 85.484375 56.398438 C 85.414062 56.6875 85.339844 56.972656 85.253906 57.25 C 85.203125 57.417969 85.152344 57.707031 84.925781 57.546875 C 84.828125 57.480469 84.78125 57.347656 84.738281 57.226562 C 84.390625 56.132812 84.246094 54.992188 83.925781 53.890625 C 83.902344 53.820312 83.886719 53.757812 83.867188 53.691406 C 83.863281 53.675781 83.847656 53.648438 83.832031 53.648438 C 83.820312 53.648438 83.8125 53.65625 83.800781 53.664062 C 83.332031 54.132812 82.933594 54.671875 82.53125 55.207031 C 82.160156 55.699219 81.8125 56.183594 81.367188 56.597656 C 81.335938 56.632812 81.296875 56.667969 81.253906 56.683594 C 81.066406 56.765625 80.964844 56.382812 80.960938 56.238281 C 80.957031 56.074219 80.996094 55.914062 81.039062 55.757812 C 81.242188 54.992188 81.5 54.246094 81.804688 53.523438 C 81.957031 53.160156 82.121094 52.804688 82.300781 52.460938 C 82.464844 52.136719 82.5625 51.785156 82.71875 51.460938 C 83.015625 50.855469 83.3125 50.246094 83.609375 49.640625 C 83.738281 49.367188 83.871094 49.089844 84.046875 48.855469 C 84.175781 48.6875 84.183594 48.707031 84.308594 48.871094 C 84.417969 49.003906 84.519531 49.144531 84.625 49.289062 C 85.015625 49.824219 86.425781 52.210938 86.707031 52.839844 C 87.058594 53.640625 87.421875 54.433594 87.789062 55.222656 C 87.957031 55.574219 88.085938 55.953125 88.222656 56.316406 C 88.292969 56.507812 88.71875 57.453125 88.367188 57.542969 Z M 114.0625 78.558594 C 113.242188 77.757812 112.507812 76.851562 111.753906 75.953125 C 111.589844 75.757812 111.554688 75.699219 111.394531 75.929688 C 111.300781 76.058594 111.238281 76.207031 111.1875 76.363281 C 111.085938 76.679688 111.054688 77.011719 111.003906 77.339844 C 110.953125 77.65625 110.882812 77.964844 110.746094 78.234375 C 110.558594 77.90625 110.347656 77.558594 110.234375 77.1875 C 110.203125 77.078125 109.925781 76.082031 109.984375 76.042969 C 109.734375 76.207031 109.53125 76.484375 109.300781 76.6875 C 109.015625 76.933594 108.738281 77.210938 108.433594 77.417969 C 108.101562 77.640625 107.730469 77.804688 107.378906 77.964844 C 107.457031 77.773438 107.550781 77.582031 107.605469 77.378906 C 107.898438 76.308594 108.453125 75.347656 109 74.429688 C 109.566406 73.472656 110.210938 72.546875 110.894531 71.695312 C 111.40625 72.527344 111.804688 73.4375 112.3125 74.273438 C 112.691406 74.890625 113.058594 75.519531 113.421875 76.152344 C 113.777344 76.773438 114.113281 77.296875 114.230469 78.046875 C 114.257812 78.214844 114.390625 78.875 114.070312 78.558594 Z M 114.0625 78.558594 "/>
</g>
</svg>
