<svg xmlns="http://www.w3.org/2000/svg" xmlns:xlink="http://www.w3.org/1999/xlink" version="1.1" x="0px" y="0px" style="enable-background:new 0 0 340.16 340.16;" xml:space="preserve" viewBox="19.4 42.96 301.44 238.82">
<style type="text/css">
	.st0{fill:#EF4C20;}
	.st1{fill:url(#SVGID_1_);}
	.st2{fill:#EA5E11;}
	.st3{stroke:#FFFFFF;stroke-miterlimit:10;}
	.st4{fill:none;stroke:#1D1D1B;stroke-width:2.2258;stroke-miterlimit:10;}
	.st5{fill:#1D1D1B;}
	.st6{fill:none;stroke:#1D1D1B;stroke-width:2;stroke-miterlimit:10;}
	.st7{fill:none;stroke:#FFFFFF;stroke-width:4.6441;stroke-miterlimit:10;}
	.st8{fill:#FFFFFF;}
	.st9{fill:none;stroke:#FFFFFF;stroke-width:23.17;stroke-miterlimit:10;}
	.st10{fill:#D05033;}
	.st11{fill:#E45942;}
	.st12{fill:#113A2A;}
	.st13{fill:#FFFFFF;stroke:#000000;stroke-miterlimit:10;}
	.st14{fill:#EF4C20;stroke:#EF4C20;stroke-width:0.5319;stroke-miterlimit:10;}
	.st15{fill:#EF4C20;stroke:#EF4C20;stroke-width:1.0638;stroke-miterlimit:10;}
	.st16{fill:#EF4C20;stroke:#EF4C20;stroke-width:1.3297;stroke-miterlimit:10;}
	.st17{fill:#DF7837;}
	.st18{fill:none;stroke:#E45942;stroke-miterlimit:10;}
	.st19{clip-path:url(#SVGID_00000098927002284395834370000002163029987910552743_);}
	.st20{fill:#F7E8D3;}
	.st21{fill:#87A48E;}
	.st22{fill:#EFA744;}
	.st23{fill:#153B2B;}
	.st24{fill:#A4C8D8;}
	.st25{fill:#ED1B24;}
	.st26{fill:#F9F2ED;}
	.st27{fill:none;stroke:#113A2A;stroke-width:3;stroke-linecap:round;stroke-miterlimit:10;}
	.st28{fill:#FFF7F0;}
	.st29{fill:#254A90;}
	.st30{fill:#EC5E10;}
	.st31{fill:#EB5D11;}
	.st32{fill:#ED5E0E;}
	.st33{fill:none;stroke:#F7E8D3;stroke-miterlimit:10;}
	.st34{fill:none;stroke:#000000;stroke-width:4.6441;stroke-miterlimit:10;}
	.st35{fill:none;stroke:#EF4C20;stroke-width:4.6441;stroke-miterlimit:10;}
	.st36{fill:none;stroke:#F9F2ED;stroke-width:2.5;stroke-miterlimit:10;}
	.st37{fill:none;stroke:#FFFFFF;stroke-width:2.5;stroke-miterlimit:10;}
	.st38{fill:none;stroke:#FFFFFF;stroke-width:0.9375;stroke-miterlimit:10;}
	.st39{fill:#FFFFFF;stroke:#ED1B24;stroke-width:1.4553;stroke-miterlimit:10;}
	.st40{fill:none;stroke:#ED1B24;stroke-width:1.4553;stroke-miterlimit:10;}
	.st41{fill:none;stroke:#FFFFFF;stroke-width:0.995;stroke-miterlimit:10;}
	.st42{fill:#FFFFFF;stroke:#ED1B24;stroke-width:1.4356;stroke-miterlimit:10;}
	.st43{fill:none;stroke:#ED1B24;stroke-width:1.4356;stroke-miterlimit:10;}
	.st44{fill:none;stroke:#FFFFFF;stroke-width:0.7522;stroke-miterlimit:10;}
	.st45{fill:#FFFFFF;stroke:#ED1B24;stroke-width:1.1676;stroke-miterlimit:10;}
	.st46{fill:none;stroke:#ED1B24;stroke-width:1.1676;stroke-miterlimit:10;}
	.st47{fill:#FFFFFF;stroke:#ED1B24;stroke-width:1.1518;stroke-miterlimit:10;}
	.st48{fill:none;stroke:#ED1B24;stroke-width:1.1518;stroke-miterlimit:10;}
	.st49{fill:none;stroke:#000000;stroke-width:0.9802;stroke-miterlimit:10;}
	.st50{stroke:#000000;stroke-width:1.5;stroke-miterlimit:10;}
	.st51{fill:none;stroke:#000000;stroke-miterlimit:10;}
	.st52{fill:#FF803D;}
	.st53{fill:#FF953D;}
</style>
<g id="Calque_2">
</g>
<g id="Calque_1">
	<path class="st52" d="M128.89,275.11c-1.29-4.56-3.85-9.13-6.03-13.26c-2.21-4.18-4.66-8.38-6.88-12.55   c-2.18-4.11-8.1-15.12-8.89-16.58c-2.85-5-5.13-9.92-6.95-10.01c-2.17-0.12-5.37,8.63-8.45,15.38c-0.87,1.91-1.79,4.24-2.56,6.22   c-1.68,4.35-3.6,8.6-5.54,12.82c-1.08,2.36-2.08,4.75-3.01,7.18c-1.86,4.86-3.67,9.94-3.44,15.19c0.02,0.57,0.09,1.18,0.42,1.63   c0.46,0.62,1.31,0.75,2.02,0.56c0.79-0.22,1.48-0.76,2.02-1.41c1.1-1.33,1.64-3.07,2.38-4.66c0.58-1.24,1.41-5.47,3.83-7.2   c2.12-1.51,9.42-0.72,12.14-0.71c2.92,0.01,5.85,0.02,8.77-0.03c2.28-0.04,4.93-0.32,7.21-0.46c0.85-0.05,1.38,0.45,1.63,0.66   c0.38,0.32,0.6,0.76,0.87,1.2c1.3,2.14,2.97,4.91,4.18,7.12c0.46,0.84,0.91,1.68,1.35,2.53c0.44,0.84,0.88,1.7,1.57,2.32   s1.67,0.94,2.49,0.55c0.73-0.35,1.16-1.2,1.33-2.04C129.63,278.08,129.3,276.55,128.89,275.11z M110.4,258.09   c-0.03,0.07-0.07,0.13-0.11,0.19c-0.27,0.39-0.71,0.64-1.16,0.74c-0.97,0.22-2.11,0.1-3.11,0.14c-1.11,0.04-2.22,0.08-3.34,0.13   c-2.25,0.09-4.5,0.2-6.74,0.35c-0.26,0.02-2.06,0.05-3.21-0.1c-1.06-0.14-1.43-1.69-0.87-3.26c1.51-4.27,5.61-19.47,7.67-19.61   c0.92-0.06,1.74,0.96,2.27,1.64c1.02,1.3,1.83,2.8,2.59,4.29c1.92,3.75,3.32,7.75,5.07,11.57c0.19,0.42,0.39,0.85,0.58,1.27   C110.43,256.26,110.81,257.26,110.4,258.09z"/>
	<path class="st52" d="M171.76,230.85c-0.23,1.1-0.59,2.18-0.91,3.17c-1.06,3.34-6.87,18.54-8.03,21.69   c-2.25,6.11-6.22,18.32-8.29,22.84c-0.48,1.04-1.21,1.98-2.2,2.6c-3.65,2.26-5.4-1.93-6.53-6.02c-0.98-3.56-2.21-7.02-3.56-10.42   c-2.46-6.21-4.76-12.27-6.86-18.49c-1.7-6.38-5.02-13.69-6-19.61c-0.56-2.43,0.92-3.44,2.77-3.77c2.02-0.36,3.83,1.22,4.55,3.23   c0.9,2.51,9.73,26.6,13.18,34.92c1.16,2.04,2.5-0.38,3.19-1.72c1.97-3.85,3.31-7.93,4.93-11.98c0.4-1,6.13-20.86,6.54-21.53   c0.9-1.47,2.19-3.33,4.39-2.86c0.53,0.11,0.99,0.43,1.37,0.8C171.89,225.27,172.18,228.84,171.76,230.85z"/>
	<path class="st52" d="M219.1,270.59c0.55,1.35,1.07,2.72,1.37,4.17c0.38,1.81,0.5,4.15-0.46,5.74c-0.42,0.7-1.1,1.22-1.83,1.23   c-0.96,0.02-1.73-1.11-2.25-1.92c-0.82-1.29-1.46-2.74-2.07-4.18c-0.62-1.49-1.31-2.99-1.84-4.52c-0.43-1.24-1.56-3.4-2.63-3.75   c-2.08-0.67-4.88-0.14-7.03-0.09c-2.17,0.05-4.35,0.17-6.52,0.22c-2.31,0.05-4.62,0.1-6.93,0.17c-1.24,0.04-2.49,0.08-3.73,0.12   c-0.92,0.03-1.92,0.09-2.62,0.8c-0.62,0.62-0.87,1.61-1.13,2.53c-0.85,3-2.33,6.16-4.11,8.54c-0.64,0.85-1.39,1.63-2.3,1.97   c-0.92,0.34-2.03,0.13-2.64-0.74c-0.39-0.55-0.54-1.3-0.52-2.01c0.01-0.72,0.17-1.42,0.34-2.11c0.68-2.77,1.63-5.62,2.58-8.28   c0.91-2.55,1.71-5.15,2.65-7.7c1.21-3.28,5.44-13.72,6.1-15.79c0.92-2.9,4.34-12.76,5.08-14.84c0.7-1.94,2.15-7.56,4.6-7.49   c1.17,0.03,2.96,2.66,3.6,3.58c1.34,1.95,8,14.35,10.63,19.7c2.01,4.09,8.33,16.59,11.12,23.37c0.1,0.24,0.19,0.47,0.29,0.71   C218.95,270.21,219.03,270.4,219.1,270.59z M194.48,235.36c-0.15-0.07-1.05-0.18-1.42,0.56c-1.92,3.86-6.6,20.66-6.84,21.29   c-0.39,1.06,0.32,2.23,1.34,2.18c4.77-0.25,13.45,0.41,16.64-0.28c0.76-0.17,1.05-1.06,0.94-1.56c-0.35-1.56-3.43-8.09-6.07-13.86   C197.12,239.4,195.68,235.93,194.48,235.36z"/>
	<path class="st52" d="M268.7,275.07c-0.38-0.31-0.85-0.53-1.33-0.66c-0.77-0.21-1.57-0.21-2.36-0.22   c-0.99-0.01-1.99-0.01-2.98-0.02c-5.15-0.04-10.3-0.19-15.44-0.12c-0.78,0.01-1.59,0.02-2.33-0.22c-2.17-0.69-2.6-3.08-2.71-5.05   c-0.14-2.4-0.01-12.01,0.02-14.42c0.03-2.54-0.06-5.09-0.12-7.63c-0.14-5.99-0.37-11.96-0.41-17.95c-0.01-1.32-0.04-2.73-0.77-3.84   c-0.8-1.23-2.42-1.85-3.83-1.47c-3.48,0.93-2.76,4.47-2.7,7.22c0.07,3.66,0.1,7.32,0.08,10.98c-0.05,10.34-1.02,20.69-0.42,31.02   c0.16,2.76,0.42,5.86,3.12,7.18c3.09,1.51,6.07,1.92,9.5,1.9c4.05-0.02,8.1-0.09,12.15-0.14c1.95-0.02,3.92-0.05,5.82-0.44   c1.53-0.32,3.11-0.81,4.33-1.7c1.03-0.75,1.64-2.63,0.97-3.77C269.13,275.48,268.93,275.26,268.7,275.07z"/>
	<path class="st52" d="M62.65,273.82c-0.4-0.3-0.82-0.57-1.23-0.81c-2.99-1.74-5.82-3.76-8.44-6.02c-2.62-2.27-4.89-4.8-7.29-7.29   c-1.2-1.25-2.5-2.45-3.84-3.56c-0.67-0.55-1.37-1.1-2.07-1.61c-0.07-0.05-0.3-0.23-0.57-0.45c1-0.4,2.03-0.82,3.03-1.43   c7.93-4.82,14.57-11.62,19.45-19.53c1.08-1.75,2.28-3.14,2.79-5.18c0.21-0.84,1.01-3.35-1.05-4.99c-1.15-0.91-3.17-0.79-4.28-0.11   c-2.74,1.69-4.17,5.18-5.84,7.8c-1.88,2.95-3.88,5.84-6.2,8.47c-2.78,3.15-5.74,5.85-9.65,7.47c-1.41,0.59-2.5,1-4.12,1.5   c-0.78,0.24-3.75,1.13-4.31,0.46c-0.83-0.99-0.53-2.44-0.59-3.54c-0.07-1.46,0.62-18.43,0.15-19.84c-0.37-1.08-1.17-1.85-2.28-2.16   c-1.35-0.38-3.34-0.73-4.53,0.76c-2.08,2.6-1.06,10.92-0.93,15.82c0.1,3.93,0.18,7.92,0.22,11.83c0.03,3.25,0.04,6.52,0.03,9.72   c-0.01,1.62-0.02,3.24-0.03,4.86l-0.01,1c-0.06,4.67-0.11,9.56,0.01,10.46c0.2,1.48,0.84,2.72,1.79,3.49   c0.68,0.55,1.53,0.84,2.34,0.84c0.65,0,1.28-0.18,1.81-0.54c1.12-0.78,1.48-2.14,1.65-3.09c0.37-2.04,0.31-16.78,0.31-17.7   c0-0.65,0-1.74,0.01-2.5c0-0.41,0.41-0.7,0.8-0.57c0.43,0.14,0.71,0.28,1.26,0.57c1.43,0.74,2.84,1.81,4.21,3.2   c1.41,1.42,2.67,3.04,3.9,4.62c0.66,0.84,1.31,1.68,1.99,2.5c3.71,4.46,8.11,8.22,13.1,11.19c1.57,0.93,3.29,1.83,5.2,2.05   c1.68,0.19,4.65-0.24,5.47-2.23C65.85,276.97,64.39,275.11,62.65,273.82z"/>
	<path class="st52" d="M320.19,227.73c-0.33,0.75-1,1.38-1.79,1.79c-1.31,0.68-2.86,0.79-4.34,0.88c-3.64,0.22-7.28,0.16-10.92,0.11   c-0.97-0.01-6.12,0.04-7.46,0.16c-1.51,0.13-2.43,0.3-3.36,1.38c-0.95,1.1-1.03,2.49-1.07,3.83c-0.04,1.38,0.01,2.95,0.46,4.28   c0.37,1.08,1.13,2.11,2.27,2.59c1.22,0.51,6.61,0.4,7.96,0.46c3.24,0.14,6.49,0.12,9.73,0.37c1.17,0.09,2.34,0.22,3.43,0.61   c1.09,0.38,2.1,1.05,2.63,1.98c1.42,2.49-1.05,4.12-3.54,4.34c-4.18,0.37-8.39,0.41-12.6,0.45c-1.31,0.01-6.05,0.19-7.16,0.57   c-0.9,0.31-1.75,0.84-2.28,1.62c-0.71,1.06-0.76,2.41-0.78,3.69c-0.05,2.61-0.09,5.23-0.14,7.84c-0.04,2.12-0.53,4.44,0.73,6.35   c0.77,1.17,2.08,1.89,3.43,2.22c2.86,0.71,6.06,0.3,8.98,0.24c3.14-0.06,6.29-0.07,9.43,0.15c1.83,0.13,3.77,0.37,5.15,1.45   c2.28,1.77,1.85,4.21-0.95,5.47c-1.38,0.62-3.12,0.62-4.63,0.66c-1.93,0.05-3.87,0.1-5.8,0.15c-2.96,0.08-5.92,0.16-8.88,0.24   c-2.77,0.07-5.52,0.32-8.29-0.09c-2.49-0.37-5.06-0.85-6.08-3.32c-1.14-2.75-1.17-5.83-1.18-8.76c-0.03-12.08-0.06-24.17-0.1-36.25   c0-1.63-0.01-3.28,0.38-4.86c0.39-1.58,1.21-3.12,2.55-4.05c1.74-1.2,3.7-1,5.72-1.04c2.65-0.05,5.31-0.06,7.96-0.06   c2.62,0,5.25,0.03,7.87,0c2.79-0.04,5.59-0.27,8.37,0.07c1.14,0.14,2.31,0.4,3.2,1.06c0.93,0.68,1.47,1.8,1.26,2.87   C320.32,227.38,320.27,227.56,320.19,227.73z"/>
	<path class="st52" d="M310.07,202.75c-0.28-0.17-0.61-0.27-0.93-0.31c-1.46-0.22-2.86,0.51-3.98,1.61   c-1.07,1.06-1.94,2.39-3.21,3.17c-1.55,0.96-3.42,1.29-5.13,1.51c-1.84,0.23-3.68,0.21-5.49-0.07c-0.83-0.13-1.73-0.3-2.48,0.19   c-0.69,0.45-1.05,1.39-1.08,2.26c-0.03,0.99,0.33,1.97,0.96,2.62c0.63,0.65,1.49,0.95,2.34,1.13c2.98,0.63,6.28,0.22,9.29-0.56   c0.17-0.05,0.35-0.09,0.52-0.14c1.79-0.5,3.57-1.18,5.17-2.26c1.06-0.71,2.01-1.63,2.82-2.68c0.79-1.03,1.66-2.36,2-3.66   c0.21-0.82,0.17-1.76-0.31-2.37C310.43,203,310.26,202.86,310.07,202.75z"/>
	<g>
		<g>
			<path class="st52" d="M320.02,192.47c-0.53-1.21-1.31-2.27-2.08-3.32c-6.02-8.19-11.76-16.6-17.97-24.63     c-2.56-3.31-4.84-6.79-7.48-10.05c-2.76-3.41-5.59-6.75-8.35-10.17c-1.38-1.71-2.62-3.54-3.79-5.42     c-3.14-5.06-6.47-9.99-9.96-14.78c-1.13-1.54-2.27-3.07-3.43-4.58c-0.54-0.7-1.13-1.37-1.63-2.1c-0.52-0.76-1.06-1.5-1.6-2.24     c-0.74-1.01-2.64-3.47-2.64-3.47s-0.78,1.15-0.96,1.4c-0.72,0.98-1.44,1.96-2.16,2.93c-0.61,0.83-1.2,1.67-1.83,2.49     c-0.59,0.77-1.08,1.66-1.61,2.49c-1.1,1.73-2.22,3.45-3.35,5.17c-1.21,1.83-1.65,1.71-2.91-0.04c-0.98-1.36-1.88-2.8-2.69-4.28     c-1.39-2.55-3.2-4.82-4.96-7.09c-4.41-5.66-8.72-11.41-13-17.18c-5-6.74-9.95-13.51-14.88-20.31c-2.49-3.45-4.98-6.9-7.45-10.36     c-0.02-0.02-0.03-0.04-0.05-0.07c-0.8-1.12-5.3-6.92-5.66-7.32c-0.09-0.1-1.05-1.41-1.05-1.41c-0.62,0.87-1.16,1.81-1.74,2.71     c-0.17,0.26-0.34,0.52-0.5,0.79c-0.33,0.54-0.62,1.11-0.92,1.67c-1.1,2.01-1.77,3.13-3.11,4.98c-0.7,0.98-1.81,2.86-2.51,3.84     c-0.68,0.96-1.26,1.99-1.84,3.02c-2.38,4.24-4.76,8.48-7.14,12.72c-0.54,0.96-1.62,4.16-2.67,4.57     c-0.94,0.36-3.09-4.54-3.67-5.58c-1.26-2.27-2.53-4.54-4.11-6.57c-1.09-1.39-10.51-15.76-14.84-20.83     c-1.11-1.3-12.35-15.17-13.83-16.49c-0.77,1.43-1.63,2.84-2.57,4.16c-2,2.94-3.47,4.69-5.15,7.85c-0.73,1.36-2.16,3.57-3.15,4.88     c-0.79,1.04-1.43,2.19-2.02,3.38c-3.48,7.1-8.52,13.14-12.76,19.74c-1.82,2.84-3.5,5.78-5.17,8.72     c-3.49,6.12-7.12,12.19-10.54,18.34c-2.65-3.9-5.42-7.72-8.31-11.43c-1.12-1.45-8.06-8.75-8.06-8.75s-3.42,4.99-4.76,6.78     c-1.51,2-2.92,4.09-4.14,6.31c-1.64,2.98-11.56,19.42-14.93,24.67c-3.52,5.49-6.25,11.51-9.65,17.08     c-3.35,5.49-7.33,10.53-10.71,16c-4.1,6.66-7.27,13.9-10.84,20.89c-1.8,3.53-3.71,7-5.87,10.28c-0.88,1.33-1.32,2.46-1.87,3.93     c-0.54,1.45-1.95,3.01-1.73,4.69c4.74,0.16,9.61-1.21,13.72-3.56c2.07-1.18,4.16-2.33,6.24-3.48c3.08-1.12,6.15-2.26,9.06-3.93     c3.06-1.68,6.82-4.72,10.29-4.68c3.13,4.03,5.81,8.54,9.63,11.98c1.79,1.61,2.85,3.61,5.46,3.68c2,0.05,4.1-1.29,5.7-2.45     c4.07-2.95,7.66-6.58,11.26-10.14c0.95-0.94,1.77-2,2.73-2.93c0.45-0.44,1-1.05,1.6-1.29c0.9-0.37,1.68,0.34,2.26,0.98     c1.04,1.15,2.09,2.3,3.13,3.44c0.26,0.28,0.63,0.59,0.97,0.42c0.13-0.06,0.22-0.19,0.31-0.31c0.67-0.94,1.35-1.87,2.02-2.81     c1.07-1.48,2.14-2.97,3.19-4.46c3.26-4.64,6.16-9.52,9.39-14.18c0.19-0.27,0.46-0.58,0.78-0.51c0.17,0.03,0.3,0.17,0.42,0.3     c1.28,1.42,1.95,3.19,2.96,4.77c1.68,2.62,3.56,5.09,5.17,7.75c1.68,2.76,3.32,5.54,4.92,8.35c0.29,0.51,0.6,1.04,1.06,1.41     c1.41,1.12,2.39-0.75,3.23-1.72c1.07-1.24,2.07-2.53,3-3.86c0.45-0.64,0.88-1.29,1.31-1.94c2.51-3.74,5-7.64,7.91-11.08     c0.28-0.33,0.64-0.69,1.04-0.6c0.21,0.04,0.39,0.21,0.55,0.36c1.2,1.18,1.93,2.88,3.32,3.88c2.04,1.46,2.85-0.56,3.81-2.1     c1.46-2.34,3-4.64,4.61-6.88c0.73-1.02,1.57-2.01,2.2-3.09c0.45-0.78,1.05-2.36,2.2-2.22c0.44,0.05,0.78,0.41,1.07,0.75     c5.18,5.94,9.92,12.25,14.18,18.87c1.14,1.77,2.26,3.58,3.72,5.1c0.15,0.15,0.31,0.31,0.52,0.34c0.54,0.08,1.17-0.65,1.36-1.07     c0.38-0.8,0.76-1.6,1.14-2.4c0.1-0.21,0.28-0.45,0.5-0.38c0.12,0.04,0.18,0.16,0.24,0.27c0.66,1.27,1.3,2.1,2.22,3.14     c1.05,1.19,1.67,2.74,2.8,3.86c0.92,1.33,1.82,2.68,2.68,4.05c0.38,0.6,0.65,1.25,1.08,1.81c0.53,0.68,1.08,1.35,1.62,2.03     c0.1,0.12,0.2,0.25,0.34,0.32c0.28,0.15,0.63,0.02,0.89-0.16c0.44-0.3,0.75-0.75,1.06-1.19c1.13-1.62,1.93-3.32,2.99-4.99     c1.1-1.73,2.3-3.4,3.57-5.02c2.49-3.19,5.21-6.2,7.92-9.21c0.29-0.32,0.57-0.64,0.86-0.96c3.08-3.45,5.84-7.18,8.87-10.74     c0.2-0.24,0.48-0.49,0.76-0.38c0.13,0.05,0.23,0.18,0.32,0.3c3.68,5.05,7.05,10.36,10.11,15.87c1.04,1.88,2.77,9.24,5.57,8.5     c0.95-0.25,1.77-1.14,2.45-1.79c3.03-2.93,5.58-6.25,8.8-9.01c0.37-0.32,0.8-0.65,1.28-0.61c0.28,0.02,0.53,0.16,0.76,0.32     c1.15,0.81,1.78,2.24,2.67,3.29c1.11,1.3,2.22,2.6,3.37,3.86c1.74,1.91,3.56,3.76,5.54,5.42c0.9,0.76,1.81,1.53,2.77,2.2     c0.69,0.48,1.67,1.29,2.57,1.25c1.21-0.05,1.74-1.37,2.49-2.27c4.62-5.51,8.53-11.68,13.44-16.91c0.6-0.64,1.21-1.26,1.84-1.87     c0.84-0.81,0.96-1.02,1.94-0.38c1.26,0.82,2.39,1.91,3.41,3.04c2.11,2.34,3.82,5.05,5.75,7.56c1.54,2,3.19,3.23,5.05,4.82     c1.89,1.62,3.58,3.49,5.41,5.19c0.71,0.66,1.48,1.31,2.29,1.91c1.82,1.34,4.02,2.59,6.26,2.78     C321.77,197.29,320.67,193.94,320.02,192.47z M78.14,109.28c0.91-1.71,2.02-3.28,3.11-4.84c0.99-1.42,2-2.85,3.24-3.98     c0.18-0.16,0.41-0.32,0.61-0.21c0.13,0.08,1.04,1.21,1.26,1.5c0.22,0.27,0.43,0.55,0.64,0.83c1.24,1.64,2.37,3.39,3.39,5.22     c0.32,0.58,0.64,1.17,0.95,1.76c0.19,0.37,0.39,0.73,0.53,1.13c0.1,0.28,0.17,0.56,0.21,0.86c0.03,0.24,0.08,0.53-0.1,0.72     c-0.13,0.14-0.33,0.12-0.5,0.08c-0.41-0.1-0.78-0.3-1.13-0.54c-0.55-0.38-1.05-0.86-1.53-1.33c-0.31-0.31-0.61-0.63-0.91-0.96     c-0.19-0.21-0.43-0.4-0.6-0.63c-0.38-0.51-0.78-0.99-1.19-1.47c-0.02-0.02-0.04-0.05-0.07-0.04c-0.02,0-0.04,0.02-0.06,0.04     c-0.07,0.11-0.08,0.26-0.09,0.4c-0.04,1.09-0.08,2.13-0.31,3.2c-0.11,0.52-0.24,1.03-0.38,1.54c-0.09,0.35-0.16,0.72-0.3,1.05     c-0.04,0.09-0.09,0.18-0.14,0.26c-0.03,0.04-0.06,0.08-0.1,0.09c-0.1,0.04-0.18-0.08-0.22-0.17c-0.7-1.47-1.23-3.05-1.58-4.68     c-0.02-0.11-0.32-1.65-0.34-1.62c-0.32,0.4-0.64,0.81-0.97,1.21c-0.49,0.62-0.98,1.24-1.53,1.8c-0.54,0.54-1.11,1.04-1.67,1.56     c-0.31,0.29-0.73,0.77-1.17,0.76C76.35,112.77,77.98,109.58,78.14,109.28z M92.25,157.01c-0.51-0.56-3.39-5.47-3.17-6.02     c-0.86,2.14-9.65,16.56-11.17,19c-1.86,3.2-2.83,0.17-3.72-2.54c-2.07,3.37-5.19,10.1-8.22,12.5c0.42-6.14,1.38-12.23,2.85-18.18     c0.52,1.96,1.29,3.85,2.3,5.58c7.57-9.14,14.81-16.2,19.7-23.66C92.34,146.18,96.96,149.26,92.25,157.01z M130.77,83.11     c-0.85,0.64-1.58,1.73-2.69,1.22c-0.08-0.03-0.16-0.08-0.19-0.18c-0.27-0.86,0.83-2.59,1.17-3.27c1.49-2.96,2.86-5.98,4.43-8.87     c1.68-3.09,3.34-6.19,5-9.29c1.34-2.5,2.62-5.18,4.16-7.52c-0.19,0.29,3.84,5.1,4.19,5.56c2.39,3.18,4.47,6.62,6.52,10.12     c2.1,3.57,3.83,7.45,5.15,11.52c0.06,0.19,0.1,0.48-0.06,0.55c-0.07,0.03-0.14,0.01-0.21-0.01c-2.35-0.78-4.75-1.58-6.9-3.01     c-0.93-0.62-1.74-1.49-2.42-2.47c-0.36-0.52-0.69-1.07-0.98-1.65c-0.2-0.4-0.4-1.26-0.79-1.4c-0.33,1.1-0.17,2.77-0.28,3.98     c-0.26,3-0.74,5.62-2.13,8.17c-0.07,0.13-0.15,0.26-0.27,0.31c-0.21,0.08-0.41-0.14-0.55-0.34c-1.25-1.79-2.06-3.96-2.63-6.18     c-0.24-0.95-0.44-1.92-0.62-2.9c-0.03-0.15-0.06-0.3-0.08-0.46c-0.04-0.25-0.37-1.51-0.5-2.31c-0.04-0.24-0.28-0.31-0.42-0.13     c-1.71,2.28-3.67,4.26-5.75,6.03C132.89,81.48,131.83,82.31,130.77,83.11z M159.41,146.08c-0.2,0.89-0.39,1.79-0.59,2.68     c-4.91-5.84-10.19-11.32-15.8-16.4c-1.15,0.86-1.97,2.2-2.24,3.66c-2.98-8.23-5.45-16.67-7.38-25.25     c8.55,16.12,24.36,25.66,32.65,41.74C163.84,150.37,161.62,148.22,159.41,146.08z M199.77,141.91c-0.39,1.06-1.43,1.83-2.54,1.89     c-0.98-4.22-1.64-9.07-3.92-12.69c-5.37-0.59-9.05-10.59-9.26-15.84c11.44,9.41,19,21.76,23.07,36.78     C204.82,151.76,198.83,144.47,199.77,141.91z M208.78,87.59c-0.14,0.03-0.28-0.02-0.41-0.08c-0.73-0.36-1.26-1.07-1.77-1.76     c-0.52-0.7-1.03-1.39-1.55-2.09c-0.4-0.54-0.75-1.09-1.11-1.66c-0.1-0.16-1.18-1.66-1.15-1.71c-0.22,0.31-0.63,3.8-0.82,4.6     c-0.16,0.68-0.34,1.35-0.54,2.01c-0.12,0.39-0.24,1.08-0.78,0.7c-0.23-0.16-0.34-0.47-0.44-0.76c-0.82-2.58-1.16-5.28-1.92-7.88     c-0.05-0.16-0.09-0.31-0.14-0.47c-0.01-0.04-0.04-0.1-0.08-0.1c-0.03,0-0.05,0.02-0.07,0.04c-1.11,1.1-2.05,2.38-3,3.64     c-0.88,1.16-1.7,2.31-2.75,3.29c-0.08,0.08-0.17,0.16-0.27,0.2c-0.44,0.19-0.68-0.71-0.69-1.05c-0.01-0.39,0.08-0.77,0.18-1.14     c0.48-1.81,1.09-3.57,1.81-5.28c0.36-0.85,0.75-1.69,1.17-2.51c0.39-0.76,0.62-1.59,0.99-2.36c0.7-1.43,1.4-2.87,2.1-4.3     c0.31-0.64,0.62-1.3,1.04-1.85c0.3-0.4,0.32-0.35,0.62,0.03c0.25,0.32,0.49,0.65,0.74,0.99c0.93,1.27,4.26,6.9,4.92,8.39     c0.83,1.89,1.69,3.76,2.56,5.63c0.39,0.83,0.7,1.72,1.02,2.58C208.61,85.14,209.61,87.38,208.78,87.59z M269.48,137.22     c-1.94-1.89-3.67-4.03-5.45-6.15c-0.39-0.46-0.47-0.6-0.85-0.06c-0.22,0.31-0.37,0.66-0.49,1.03c-0.24,0.74-0.31,1.53-0.43,2.3     c-0.12,0.75-0.29,1.48-0.61,2.12c-0.45-0.78-0.94-1.6-1.21-2.48c-0.08-0.25-0.73-2.61-0.59-2.7c-0.59,0.39-1.07,1.04-1.62,1.52     c-0.67,0.58-1.33,1.24-2.05,1.73c-0.78,0.52-1.66,0.91-2.49,1.29c0.19-0.45,0.41-0.9,0.54-1.38c0.69-2.53,2-4.8,3.29-6.97     c1.34-2.26,2.86-4.45,4.48-6.46c1.21,1.97,2.15,4.12,3.35,6.09c0.89,1.46,1.76,2.94,2.62,4.44c0.84,1.47,1.63,2.7,1.91,4.47     C269.92,136.41,270.24,137.97,269.48,137.22z"/>
		</g>
	</g>
</g>
</svg>