<?xml version="1.0" encoding="utf-8"?>
<!-- Generator: Adobe Illustrator 27.0.0, SVG Export Plug-In . SVG Version: 6.00 Build 0)  -->
<svg version="1.1" id="Calque_1" xmlns="http://www.w3.org/2000/svg" xmlns:xlink="http://www.w3.org/1999/xlink" x="0px" y="0px"
	 viewBox="0 0 765.28 841.89" style="enable-background:new 0 0 765.28 841.89;" xml:space="preserve">
<style type="text/css">
	.st0{fill:#3c002e;}
</style>
<g>
	<path class="st0" d="M395.32,294.46l23.56-188.45c-23.93-2.77-48.26-2.82-72.49-0.05l23.56,188.51
		C378.44,293.62,386.93,293.63,395.32,294.46z"/>
	<path class="st0" d="M369.95,547.43L346.4,735.88c23.93,2.77,48.26,2.82,72.49,0.05l-23.56-188.51
		C386.84,548.27,378.34,548.26,369.95,547.43z"/>
	<path class="st0" d="M697.62,384.7l-188.35,23.54c0.83,8.49,0.79,17-0.07,25.4l188.37,23.55
		C700.34,433.25,700.39,408.93,697.62,384.7z"/>
	<path class="st0" d="M256.08,408.25L67.71,384.7c-2.77,23.93-2.82,48.26-0.05,72.49l188.35-23.54
		C255.17,425.16,255.21,416.65,256.08,408.25z"/>
	
		<ellipse transform="matrix(0.2588 -0.9659 0.9659 0.2588 -122.9977 681.5963)" class="st0" cx="382.64" cy="420.95" rx="50" ry="50"/>
	<path class="st0" d="M330.41,305.14l-73.85-175.05c-10.98,4.77-21.81,10.2-32.42,16.32c-10.62,6.13-20.72,12.8-30.35,19.92
		l114.67,151.48c3.41-2.44,6.96-4.74,10.66-6.88C322.83,308.8,326.6,306.87,330.41,305.14z"/>
	<path class="st0" d="M456.82,524.07c-3.41,2.44-6.96,4.74-10.66,6.88c-3.7,2.14-7.47,4.07-11.29,5.8l73.85,175.05
		c10.98-4.77,21.81-10.2,32.42-16.32s20.72-12.8,30.35-19.92L456.82,524.07z"/>
	<path class="st0" d="M498.67,368.62l174.82-73.76c-4.77-10.98-10.2-21.81-16.32-32.42s-12.8-20.72-19.92-30.35L485.97,346.62
		c2.45,3.41,4.76,6.97,6.9,10.69C495.01,361.02,496.94,364.8,498.67,368.62z"/>
	<path class="st0" d="M266.6,473.27L91.78,547.02c4.77,10.98,10.2,21.81,16.32,32.42c6.13,10.62,12.8,20.72,19.92,30.35
		l151.29-114.52c-2.45-3.41-4.76-6.97-6.9-10.69C270.27,480.87,268.33,477.09,266.6,473.27z"/>
	<path class="st0" d="M127.98,232.06c-14.52,19.6-26.64,40.69-36.2,62.8l174.98,73.82c3.47-7.68,7.72-15.05,12.7-21.96
		L127.98,232.06z"/>
	<path class="st0" d="M673.5,547.02L498.52,473.2c-3.47,7.68-7.72,15.05-12.7,21.96l151.48,114.67
		C651.81,590.23,663.93,569.14,673.5,547.02z"/>
	<path class="st0" d="M571.52,166.29c-19.6-14.52-40.69-26.64-62.8-36.2l-73.79,174.91c7.71,3.45,15.1,7.67,22.03,12.64
		L571.52,166.29z"/>
	<path class="st0" d="M193.76,675.6c19.6,14.52,40.69,26.64,62.8,36.2l73.79-174.91c-7.71-3.45-15.1-7.67-22.03-12.64L193.76,675.6z
		"/>
</g>
</svg>
