<svg xmlns="http://www.w3.org/2000/svg" width="1200pt" height="1200pt" version="1.1" viewBox="0 0 1200 1200">
 <path d="m366.48 600c0 69.109-56.172 125.28-125.41 125.28-69.109 0-125.28-56.172-125.28-125.28 0-69.238 56.172-125.34 125.28-125.34 69.238 0 125.41 56.102 125.41 125.34z" fill="#9f0000"/>
 <path d="m448.38 562.08v75.844l635.83 46.941v-169.73z" fill="#9f0000"/>
 <path d="m312.19 401.64 65.473 37.992 259.45-354.77-146.83-84.863z" fill="#9f0000"/>
 <path d="m401.91 463.75 37.719 65.66 470.94-218.23-84.863-147.04z" fill="#9f0000"/>
 <path d="m312.19 798.29 65.473-37.98 259.45 354.83-146.83 84.863z" fill="#9f0000"/>
 <path d="m401.91 736.2 37.719-65.602 470.94 218.22-84.863 146.96z" fill="#9f0000"/>
</svg>